<svg id="Layer_1" data-name="Layer 1" xmlns="http://www.w3.org/2000/svg" viewBox="0 0 256.37 181.08"><defs><style>.cls-1,.cls-2{fill:#eb6c2b;}.cls-1{fill-rule:evenodd;}</style></defs><title>Edu-action-logo</title><path class="cls-1" d="M162.82,109.91v22l16,.07.05-126.19-16,0V23.89l-6.19-6a81.07,81.07,0,0,0-7.19-5.4C104.74-15.85,48.78,16.09,48.76,67a66.25,66.25,0,0,0,14.89,41.44l9.57,9.3c23.86,18.48,55.13,19.07,79.61,1.2a70.9,70.9,0,0,0,8.38-7.34Zm-1.16-33c-.15,5-4.71,13.65-6.92,17a38.59,38.59,0,0,1-5.48,6.74c-1.28,1-2.12,2.59-6.25,5.63a49.39,49.39,0,0,1-67.62-8.92,49.11,49.11,0,0,1-4-55c2.72-4.74,3.74-5.58,6.63-8.74l4.4-4.34a61.82,61.82,0,0,1,7.23-5c15.43-8.52,31.89-8.35,47.62-.35,5.46,2.76,6.82,4.57,10.24,7.57,1.23,1.08,1.76,1.87,3,3,7.33,6.64,14.1,25.67,12.13,35.5H83a32,32,0,0,0,3.09,10.75,33.59,33.59,0,0,0,7.46,9.66c10,9.57,29.84,10.68,41.89-1.47,5.53-5.58,3.84-4.45,7.81-12.05Z"/><path class="cls-1" d="M143.28,57.64c-1-5.22-6.18-11.75-10.31-15-11.32-9-26.33-8.62-38.28,0-4,2.9-9.61,10.33-10.33,15.14Z"/><polygon class="cls-1" points="0 141.6 0 176.34 26.4 176.34 26.4 170.47 7.04 170.47 7.04 161.05 24.41 161.05 24.41 155.18 7.04 155.18 7.04 147.47 25.72 147.47 25.72 141.6 0 141.6"/><path class="cls-1" d="M38.76,169.11c-.73-1.21-1.11-3.16-1.11-5.85a8.6,8.6,0,0,1,1.6-5.65,5,5,0,0,1,4-1.9,4.92,4.92,0,0,1,4,1.92c1,1.28,1.56,3.37,1.56,6.27q0,3.9-1.6,5.86a4.89,4.89,0,0,1-3.9,2A5,5,0,0,1,38.76,169.11ZM33.83,154q-3,3.35-3,9.75t3.1,9.77a9.64,9.64,0,0,0,7.46,3.5,9.29,9.29,0,0,0,4.23-1.08,10.39,10.39,0,0,0,3.65-3.25v3.7h6.16V141.6H48.76v12.53a9.42,9.42,0,0,0-7.31-3.51A9.84,9.84,0,0,0,33.83,154Z"/><path class="cls-1" d="M61.86,167.13a14,14,0,0,0,.9,5.58,6.53,6.53,0,0,0,2.92,3.14A9.28,9.28,0,0,0,70.24,177,10,10,0,0,0,75,175.78a10.15,10.15,0,0,0,3.63-3.21v3.77h6.16V151.15H78.11V161.8q0,5.41-.5,6.81a4.71,4.71,0,0,1-1.85,2.32,5.26,5.26,0,0,1-3.07.94,4.1,4.1,0,0,1-2.47-.7,3.44,3.44,0,0,1-1.34-1.9,31.39,31.39,0,0,1-.38-6.52v-11.6H61.86Z"/><path class="cls-1" d="M129.26,165.71h-9.52l4.69-12.86Zm-8.49-21-13.49,34.74h7.44l2.89-7.91h13.93l3,7.91h7.58L128.2,144.75Z"/><path class="cls-1" d="M156.65,159a4.59,4.59,0,0,1,3,1A4.68,4.68,0,0,1,161.2,163l6.55-1.17a10.94,10.94,0,0,0-3.89-6,12.16,12.16,0,0,0-7.31-2,11.65,11.65,0,0,0-8.9,3.47q-3.28,3.48-3.29,9.72t3.29,9.67a11.49,11.49,0,0,0,8.79,3.48,12.07,12.07,0,0,0,7.74-2.3,11.65,11.65,0,0,0,3.91-6.82l-6.55-1.12a6.44,6.44,0,0,1-1.71,3.72,4.45,4.45,0,0,1-3.09,1.09,4.9,4.9,0,0,1-4-1.86q-1.52-1.85-1.51-6.34,0-4,1.48-5.75A5,5,0,0,1,156.65,159Z"/><path class="cls-1" d="M170,154.31v5.29h3.05v11a34.52,34.52,0,0,0,.21,4.71,6.39,6.39,0,0,0,.94,2.62,4.77,4.77,0,0,0,2.11,1.56,8.21,8.21,0,0,0,3.24.61,13.2,13.2,0,0,0,5.24-1l-.55-5.18a8.5,8.5,0,0,1-2.69.64,1.86,1.86,0,0,1-1.12-.33,1.48,1.48,0,0,1-.6-.85,25.13,25.13,0,0,1-.13-3.62V159.6h4.56v-5.29h-4.56v-8.93l-6.65,3.93v5Z"/><rect class="cls-2" x="188.96" y="144.75" width="6.65" height="6.16"/><rect class="cls-2" x="188.96" y="154.31" width="6.65" height="25.18"/><path class="cls-1" d="M209.5,172.69a10.19,10.19,0,0,1,0-11.48,5.77,5.77,0,0,1,8.74,0A8.32,8.32,0,0,1,220,166.9a8.51,8.51,0,0,1-1.76,5.79,5.77,5.77,0,0,1-8.74,0Zm-7-12.53a13.65,13.65,0,0,0-1.63,6.43,15.29,15.29,0,0,0,1.63,7.37,10.75,10.75,0,0,0,4.77,4.59,14.57,14.57,0,0,0,6.6,1.57,12.44,12.44,0,0,0,9.28-3.76,13,13,0,0,0,3.68-9.48,12.86,12.86,0,0,0-3.65-9.39,12.54,12.54,0,0,0-9.36-3.71,13.58,13.58,0,0,0-6.68,1.64A11.23,11.23,0,0,0,202.52,160.16Z"/><path class="cls-1" d="M232,154.31v25.18h6.65V168.11a21.22,21.22,0,0,1,.52-5.79,4.75,4.75,0,0,1,1.9-2.5,5.33,5.33,0,0,1,3.13-.95,4,4,0,0,1,2.32.66,3.72,3.72,0,0,1,1.4,1.86,19.47,19.47,0,0,1,.43,5.27v12.83H255V163.86a20.35,20.35,0,0,0-.37-4.47,7.29,7.29,0,0,0-1.31-2.8,6.74,6.74,0,0,0-2.77-2A10.47,10.47,0,0,0,238.14,158v-3.69Z"/><rect class="cls-2" x="91.96" y="162.12" width="11.9" height="5.85"/></svg>