<?xml version="1.0" encoding="utf-8"?>
<!-- Generator: Adobe Illustrator 22.1.0, SVG Export Plug-In . SVG Version: 6.00 Build 0)  -->
<svg version="1.1" id="Layer_1" xmlns="http://www.w3.org/2000/svg" xmlns:xlink="http://www.w3.org/1999/xlink" x="0px" y="0px"
	 viewBox="0 0 480 480" style="enable-background:new 0 0 480 480;" xml:space="preserve">
<style type="text/css">
	.st0{fill:#F09246;}
	.st1{fill:#BDDBFF;}
	.st2{fill:#DD660E;}
</style>
<path class="st0" d="M424,72c0-17.7-14.3-32-32-32h-48v16c0,8.8-7.2,16-16,16s-16-7.2-16-16V40h-80v16c0,8.8-7.2,16-16,16
	s-16-7.2-16-16V40h-80v16c0,8.8-7.2,16-16,16s-16-7.2-16-16V40H40C22.3,40,8,54.3,8,72v48h416V72z"/>
<path class="st0" d="M360,471.9c61.8,0,112-50.1,112-112s-50.1-112-112-112c-61.8,0-112,50.1-112,112S298.2,471.9,360,471.9z
	 M360,271.9c48.6,0,88,39.4,88,88s-39.4,88-88,88s-88-39.4-88-88S311.4,271.9,360,271.9z"/>
<path class="st1" d="M376,359.9c0,8.8-7.2,16-16,16s-16-7.2-16-16s7.2-16,16-16C368.9,343.9,376,351.1,376,359.9z"/>
<path class="st0" d="M200.1,192c0,13.3-10.7,24-24,24s-24-10.7-24-24s10.7-24,24-24C189.3,168,200.1,178.7,200.1,192z"/>
<path class="st0" d="M280,192c0,13.3-10.7,24-24,24c-13.3,0-24-10.7-24-24s10.7-24,24-24C269.3,168,280,178.7,280,192z"/>
<path class="st0" d="M360,192c0,13.3-10.7,24-24,24s-24-10.7-24-24s10.7-24,24-24S360,178.7,360,192z"/>
<path class="st0" d="M120.1,192c0,13.3-10.7,24-24,24s-24-10.7-24-24s10.7-24,24-24C109.3,168,120.1,178.7,120.1,192z"/>
<path class="st0" d="M200.1,271.9c0,13.3-10.7,24-24,24s-24-10.7-24-24s10.7-24,24-24C189.3,247.9,200.1,258.7,200.1,271.9z"/>
<path class="st0" d="M120.1,271.9c0,13.3-10.7,24-24,24s-24-10.7-24-24s10.7-24,24-24C109.3,247.9,120.1,258.7,120.1,271.9z"/>
<g>
	<path class="st2" d="M432,264.2V72c0-22.1-17.9-40-40-40h-40v-8c0-13.3-10.7-24-24-24s-24,10.7-24,24v8h-64v-8
		c0-13.3-10.7-24-24-24s-24,10.7-24,24v8h-64v-8c0-13.3-10.7-24-24-24S80,10.7,80,24v8H40C17.9,32,0,49.9,0,72v255.9
		c0,22.1,17.9,40,40,40h200.4c3.6,55.3,44.6,100.9,99.2,110.3s108.6-19.8,130.5-70.7C492.1,356.7,476.3,297.4,432,264.2z M320,24
		c0-4.4,3.6-8,8-8s8,3.6,8,8v32c0,4.4-3.6,8-8,8s-8-3.6-8-8V24z M208.1,24c0-4.4,3.6-8,8-8s8,3.6,8,8v32c0,4.4-3.6,8-8,8s-8-3.6-8-8
		V24z M96.1,24c0-4.4,3.6-8,8-8s8,3.6,8,8v32c0,4.4-3.6,8-8,8s-8-3.6-8-8V24z M40.1,48h40v8c0,13.3,10.7,24,24,24s24-10.7,24-24v-8
		h64v8c0,13.3,10.7,24,24,24s24-10.7,24-24v-8h64v8c0,13.3,10.7,24,24,24s24-10.7,24-24v-8h40c13.3,0,24,10.7,24,24v40h-400V72
		C16.1,58.7,26.8,48,40.1,48z M16.1,327.9V128H416v125.9c-35.9-19-79-18.6-114.5,1.3C266,275,243,311.4,240.4,352H40.1
		C26.8,351.9,16.1,341.2,16.1,327.9z M360,463.9c-57.4,0-104-46.6-104-104s46.6-104,104-104s104,46.6,104,104
		C463.9,417.3,417.4,463.8,360,463.9z"/>
	<path class="st2" d="M368,337.4v-41.5h-16v41.5c-6.8,2.4-12.1,7.7-14.5,14.5H312v16h25.5c3.7,10.5,14.2,17.1,25.3,15.9
		c11.1-1.3,19.8-10,21.1-21.1C385.1,351.6,378.6,341.1,368,337.4z M360,367.9c-4.4,0-8-3.6-8-8s3.6-8,8-8s8,3.6,8,8
		S364.4,367.9,360,367.9z"/>
	<path class="st2" d="M360,263.9c-53,0-96,43-96,96s43,96,96,96s96-43,96-96C455.9,306.9,413,264,360,263.9z M360,439.9
		c-44.2,0-80-35.8-80-80s35.8-80,80-80s80,35.8,80,80S404.2,439.9,360,439.9z"/>
	<path class="st2" d="M176.1,160c-17.7,0-32,14.3-32,32s14.3,32,32,32s32-14.3,32-32S193.7,160,176.1,160z M176.1,208
		c-8.8,0-16-7.2-16-16s7.2-16,16-16s16,7.2,16,16S184.9,208,176.1,208z"/>
	<path class="st2" d="M256,224c17.7,0,32-14.3,32-32s-14.3-32-32-32s-32,14.3-32,32S238.4,224,256,224z M256,176c8.8,0,16,7.2,16,16
		s-7.2,16-16,16c-8.8,0-16-7.2-16-16S247.2,176,256,176z"/>
	<path class="st2" d="M336,224c17.7,0,32-14.3,32-32s-14.3-32-32-32s-32,14.3-32,32S318.4,224,336,224z M336,176c8.8,0,16,7.2,16,16
		s-7.2,16-16,16s-16-7.2-16-16S327.2,176,336,176z"/>
	<path class="st2" d="M96.1,160c-17.7,0-32,14.3-32,32s14.3,32,32,32s32-14.3,32-32S113.7,160,96.1,160z M96.1,208
		c-8.8,0-16-7.2-16-16s7.2-16,16-16s16,7.2,16,16S104.9,208,96.1,208z"/>
	<path class="st2" d="M176.1,240c-17.7,0-32,14.3-32,32s14.3,32,32,32s32-14.3,32-32S193.7,240,176.1,240z M176.1,287.9
		c-8.8,0-16-7.2-16-16s7.2-16,16-16s16,7.2,16,16S184.9,287.9,176.1,287.9z"/>
	<path class="st2" d="M245.4,302.1l5.3-15.1c-6.3-2.3-10.6-8.2-10.6-14.9s4.1-12.8,10.4-15.1c6.3-2.4,13.4-0.5,17.8,4.6l12.1-10.4
		c-8.8-10.2-22.9-13.8-35.5-9.1s-20.9,16.8-20.7,30.3C224.2,285.7,232.7,297.7,245.4,302.1L245.4,302.1z"/>
	<path class="st2" d="M96.1,240c-17.7,0-32,14.3-32,32s14.3,32,32,32s32-14.3,32-32S113.7,240,96.1,240z M96.1,287.9
		c-8.8,0-16-7.2-16-16s7.2-16,16-16s16,7.2,16,16S104.9,287.9,96.1,287.9z"/>
</g>
</svg>
