<?xml version="1.0" encoding="utf-8"?>
<!-- Generator: Adobe Illustrator 22.1.0, SVG Export Plug-In . SVG Version: 6.00 Build 0)  -->
<svg version="1.1" id="Layer_1" xmlns="http://www.w3.org/2000/svg" xmlns:xlink="http://www.w3.org/1999/xlink" x="0px" y="0px"
	 viewBox="0 0 480 480" style="enable-background:new 0 0 480 480;" xml:space="preserve">
<style type="text/css">
	.st0{fill:#AE6DCC;}
	.st1{fill:#710193;}
</style>
<path class="st0" d="M376,72c0,17.7,14.3,32,32,32h64L376,8V72z"/>
<path class="st0" d="M176,32h48v144h-48V32z"/>
<path class="st0" d="M152,64h-48v112h48V64z"/>
<path class="st0" d="M32,96h48v80H32V96z"/>
<path class="st0" d="M360.4,244.4c-11.9-8.1-26-12.4-40.4-12.4v72h-72c0,34.3,24.2,63.8,57.8,70.6c33.6,6.8,67.3-11.1,80.6-42.8
	C399.7,300.2,388.8,263.6,360.4,244.4z"/>
<path class="st0" d="M320,232c-39.8,0-72,32.2-72,72h72V232z"/>
<path class="st0" d="M56,272H24v144h64V272H56z"/>
<path class="st0" d="M40,208h32v32H40V208z"/>
<g>
	<path class="st1" d="M477.7,98.3l-96-96C380.2,0.8,378.1,0,376,0H152c-22.1,0-40,17.9-40,40v16h-8c-4.4,0-8,3.6-8,8v104h-8V96
		c0-4.4-3.6-8-8-8H32c-4.4,0-8,3.6-8,8v72h-8V0H0v176c0,4.4,3.6,8,8,8h104v208c0,22.1,17.9,40,40,40h288c22.1,0,40-17.9,40-40V104
		C480,101.9,479.2,99.8,477.7,98.3z M384,27.3L452.7,96H408c-13.3,0-24-10.7-24-24V27.3z M112,72h32v96h-32V72z M40,168v-64h32v64
		H40z M440,416H152c-13.3,0-24-10.7-24-24V184h120v-16h-16V32c0-4.4-3.6-8-8-8h-48c-4.4,0-8,3.6-8,8v136h-8V64c0-4.4-3.6-8-8-8h-24
		V40c0-13.3,10.7-24,24-24h216v56c0,22.1,17.9,40,40,40h56v280C464,405.3,453.3,416,440,416z M216,168h-32V40h32V168z"/>
	<path class="st1" d="M416,200h32v16h-32V200z"/>
	<path class="st1" d="M416,224h32v16h-32V224z"/>
	<path class="st1" d="M377.9,210.9L358.6,234c-37.3-20.6-84.3-8.3-106.7,28c-22.4,36.3-12.3,83.8,22.9,107.9L260.7,384H248v16h16
		c2.1,0,4.2-0.8,5.7-2.3l19.8-19.8c36.4,15.1,78.3,1.5,98.9-32.1c20.5-33.6,13.6-77.2-16.5-102.7l15.9-19.1H400v-16h-16
		C381.6,208,379.4,209.1,377.9,210.9z M312,240.6V296h-55.4C260.2,267,283,244.2,312,240.6z M301.9,365.4l7.7-7.7l-11.3-11.3l-12,12
		c-16.4-10.2-27.4-27.2-29.8-46.3h60.1l42.5,42.5C343,367.2,321.7,371.2,301.9,365.4L301.9,365.4z M384,304c0,14.2-4.8,28-13.5,39.2
		L328,300.7v-60.1c7,0.9,13.8,2.9,20.1,6l-10.2,12.3l12.3,10.3l11.5-13.7C375.8,267.6,384,285.3,384,304z"/>
	<path class="st1" d="M200,240h32v16h-32V240z"/>
	<path class="st1" d="M200,264h32v16h-32V264z"/>
	<path class="st1" d="M200,384h32v16h-32V384z"/>
	<path class="st1" d="M200,360h32v16h-32V360z"/>
	<path class="st1" d="M296,112h64v16h-64V112z"/>
	<path class="st1" d="M264,112h16v16h-16V112z"/>
	<path class="st1" d="M264,144h96v16h-96V144z"/>
	<path class="st1" d="M80,232v-24c0-4.4-3.6-8-8-8H40c-4.4,0-8,3.6-8,8v24c-8.8,0-16,7.2-16,16v168c0,1.7,0.6,3.4,1.6,4.8l24,32
		c1.5,2,3.9,3.2,6.4,3.2v16c0,4.4,3.6,8,8,8s8-3.6,8-8v-16c2.5,0,4.9-1.2,6.4-3.2l24-32c1-1.4,1.6-3.1,1.6-4.8V248
		C96,239.2,88.8,232,80,232z M48,216h16v16H48V216z M80,248v16H32v-16H80z M32,408V280h16v56h16v-56h16v128H32z M60,440h-8l-12-16
		h32L60,440z"/>
</g>
</svg>
