<?xml version="1.0" encoding="utf-8"?>
<!-- Generator: Adobe Illustrator 22.1.0, SVG Export Plug-In . SVG Version: 6.00 Build 0)  -->
<svg version="1.1" id="Layer_1" xmlns="http://www.w3.org/2000/svg" xmlns:xlink="http://www.w3.org/1999/xlink" x="0px" y="0px"
	 viewBox="0 0 480 480" style="enable-background:new 0 0 480 480;" xml:space="preserve">
<style type="text/css">
	.st0{fill:#AE6DCC;}
	.st1{fill:#710193;}
</style>
<path class="st0" d="M148,232h48c-4.4,0-8-3.6-8-8v-56c0-11.7,4.3-22.9,12-31.6c-7.3-8.4-17.3-14-28.3-15.7L148,176V232z"/>
<path class="st0" d="M84,168v56c0,4.4,3.6,8,8,8h56v-56l-23.7-55.4C101.1,124.4,84,144.5,84,168z"/>
<path class="st0" d="M356,232h56c4.4,0,8-3.6,8-8v-56c0-23.5-17.1-43.6-40.3-47.4L356,176V232z"/>
<path class="st0" d="M316,168v56c0,4.4-3.6,8-8,8h48v-56l-23.7-55.4c-11,1.8-21,7.3-28.3,15.7C311.7,145.1,316,156.3,316,168z"/>
<path class="st0" d="M188,168v56c0,4.4,3.6,8,8,8h56v-56l-23.7-55.4c-11,1.8-21,7.4-28.3,15.7C192.3,145.1,188,156.3,188,168z"/>
<path class="st0" d="M304,136.4c-7.3-8.4-17.3-13.9-28.3-15.7L252,176v56h56c4.4,0,8-3.6,8-8v-56C316,156.3,311.7,145.1,304,136.4z"
	/>
<path class="st0" d="M236,40l16,8h40v-8c0-17.7-14.3-32-32-32h-16c-17.7,0-32,14.3-32,32v8h16L236,40z"/>
<path class="st0" d="M340,40l16,8h40v-8c0-17.7-14.3-32-32-32h-16c-17.7,0-32,14.3-32,32v8h16L340,40z"/>
<path class="st0" d="M132,40l16,8h40v-8c0-17.7-14.3-32-32-32h-16c-17.7,0-32,14.3-32,32v8h16L132,40z"/>
<path class="st0" d="M108,360h64v112h-64V360z"/>
<g>
	<path class="st1" d="M276,160h16v16h-16V160z"/>
	<path class="st1" d="M412,240c8.8,0,16-7.2,16-16v-56c-0.1-30.9-25.1-55.9-56-56h-32c-13.1,0-25.8,4.7-35.9,13.2
		c-10.2-8.5-22.9-13.1-36.1-13.2h-32c-13.2,0.1-26,4.7-36.1,13.2c-10-8.5-22.7-13.1-35.9-13.2h-32c-30.9,0.1-55.9,25.1-56,56v56
		c0,8.8,7.2,16,16,16H412z M196,224v-56c-0.1-17.3,11.1-32.7,27.6-38l20.4,47.6V224H196z M260,224v-46.4l20.4-47.6
		c16.5,5.3,27.7,20.6,27.6,38v56H260z M314.7,137.1c3.8-3.1,8.2-5.5,12.9-7.1l20.4,47.6V224h-24v-56
		C324,157,320.8,146.3,314.7,137.1z M412,168v56h-48v-46.4l20.4-47.6C400.9,135.3,412.1,150.7,412,168z M367.8,128L356,155.7
		L344.2,128H367.8z M263.8,128L252,155.7L240.2,128H263.8z M159.8,128L148,155.7L136.2,128H159.8z M92,168
		c-0.1-17.3,11.1-32.7,27.6-38l20.4,47.6V224H92V168z M156,224v-46.4l20.4-47.6c4.7,1.5,9.1,3.9,12.9,7.1
		c-6.1,9.2-9.3,19.9-9.3,30.9v56H156z"/>
	<path class="st1" d="M292,72V56c4.4,0,8-3.6,8-8v-8c0-22.1-17.9-40-40-40h-16c-22.1,0-40,17.9-40,40v8c0,4.4,3.6,8,8,8v16
		c0,22.1,17.9,40,40,40S292,94.1,292,72z M244,16h16c13.3,0,24,10.7,24,24h-30.1l-14.3-7.2c-3.1-1.5-6.8-0.9-9.2,1.5l-5.7,5.7H220
		C220,26.7,230.7,16,244,16z M252,96c-13.3,0-24-10.7-24-24V56c2.1,0,4.2-0.8,5.7-2.3l3.9-3.9l10.9,5.4c1.1,0.6,2.3,0.8,3.6,0.8h24
		v16C276,85.3,265.3,96,252,96z"/>
	<path class="st1" d="M396,72V56c4.4,0,8-3.6,8-8v-8c0-22.1-17.9-40-40-40h-16c-22.1,0-40,17.9-40,40v8c0,4.4,3.6,8,8,8v16
		c0,22.1,17.9,40,40,40S396,94.1,396,72z M348,16h16c13.3,0,24,10.7,24,24h-30.1l-14.3-7.2c-3.1-1.5-6.8-0.9-9.2,1.5l-5.7,5.7H324
		C324,26.7,334.7,16,348,16z M356,96c-13.3,0-24-10.7-24-24V56c2.1,0,4.2-0.8,5.7-2.3l3.9-3.9l10.9,5.4c1.1,0.6,2.3,0.8,3.6,0.8h24
		v16C380,85.3,369.3,96,356,96z"/>
	<path class="st1" d="M188,72V56c4.4,0,8-3.6,8-8v-8c0-22.1-17.9-40-40-40h-16c-22.1,0-40,17.9-40,40v8c0,4.4,3.6,8,8,8v16
		c0,22.1,17.9,40,40,40S188,94.1,188,72z M140,16h16c13.3,0,24,10.7,24,24h-30.1l-14.3-7.2c-3.1-1.5-6.8-0.9-9.2,1.5l-5.7,5.7H116
		C116,26.7,126.7,16,140,16z M148,96c-13.3,0-24-10.7-24-24V56c2.1,0,4.2-0.8,5.7-2.3l3.9-3.9l10.9,5.4c1.1,0.6,2.3,0.8,3.6,0.8h24
		v16C172,85.3,161.3,96,148,96z"/>
	<path class="st1" d="M316,336h-64v-48c0-17.7-14.3-32-32-32s-32,14.3-32,32v51.7L169.6,352H108c-4.4,0-8,3.6-8,8v112
		c0,4.4,3.6,8,8,8h208c9.5,0,18-5.6,21.9-14.2c3.9-8.6,2.3-18.7-4-25.8c8.2-9.1,8.2-22.9,0-32c8.2-9.1,8.2-22.9,0-32
		c6.3-7.1,7.9-17.2,4-25.8C334,341.6,325.5,336,316,336z M116,368h48v96h-48V368z M316,384c4.4,0,8,3.6,8,8s-3.6,8-8,8s-8,3.6-8,8
		s3.6,8,8,8s8,3.6,8,8s-3.6,8-8,8s-8,3.6-8,8s3.6,8,8,8s8,3.6,8,8s-3.6,8-8,8H180v-99.7l20.4-13.6c2.2-1.5,3.6-4,3.6-6.7v-56
		c0-8.8,7.2-16,16-16s16,7.2,16,16v56c0,4.4,3.6,8,8,8h72c4.4,0,8,3.6,8,8s-3.6,8-8,8s-8,3.6-8,8S311.6,384,316,384z"/>
	<path class="st1" d="M116,272h16v16h-16V272z"/>
	<path class="st1" d="M100,288h16v16h-16V288z"/>
	<path class="st1" d="M116,304h16v16h-16V304z"/>
	<path class="st1" d="M132,288h16v16h-16V288z"/>
	<path class="st1" d="M44,344h16v16H44V344z"/>
	<path class="st1" d="M28,360h16v16H28V360z"/>
	<path class="st1" d="M44,376h16v16H44V376z"/>
	<path class="st1" d="M60,360h16v16H60V360z"/>
	<path class="st1" d="M356,272h16v16h-16V272z"/>
	<path class="st1" d="M340,288h16v16h-16V288z"/>
	<path class="st1" d="M356,304h16v16h-16V304z"/>
	<path class="st1" d="M372,288h16v16h-16V288z"/>
	<path class="st1" d="M420,344h16v16h-16V344z"/>
	<path class="st1" d="M404,360h16v16h-16V360z"/>
	<path class="st1" d="M420,376h16v16h-16V376z"/>
	<path class="st1" d="M436,360h16v16h-16V360z"/>
</g>
</svg>
